<?xml version="1.0" encoding="UTF-8" standalone="no"?>
<!-- Created with Inkscape (http://www.inkscape.org/) -->

<svg
   xmlns:dc="http://purl.org/dc/elements/1.1/"
   xmlns:cc="http://creativecommons.org/ns#"
   xmlns:rdf="http://www.w3.org/1999/02/22-rdf-syntax-ns#"
   xmlns:svg="http://www.w3.org/2000/svg"
   xmlns="http://www.w3.org/2000/svg"
   xmlns:sodipodi="http://sodipodi.sourceforge.net/DTD/sodipodi-0.dtd"
   xmlns:inkscape="http://www.inkscape.org/namespaces/inkscape"
   width="118.48885mm"
   height="27.20759mm"
   viewBox="0 0 118.48885 27.207591"
   version="1.1"
   id="svg147"
   xml:space="preserve"
   inkscape:version="0.92.3 (2405546, 2018-03-11)"
   sodipodi:docname="banner.svg"><metadata
     id="metadata19"><rdf:RDF><cc:Work
         rdf:about=""><dc:format>image/svg+xml</dc:format><dc:type
           rdf:resource="http://purl.org/dc/dcmitype/StillImage" /><dc:title></dc:title></cc:Work></rdf:RDF></metadata><sodipodi:namedview
     id="namedview149"
     pagecolor="#ffffff"
     bordercolor="#666666"
     borderopacity="1.0"
     inkscape:showpageshadow="2"
     inkscape:pageopacity="0.0"
     inkscape:pagecheckerboard="0"
     inkscape:deskcolor="#d1d1d1"
     inkscape:document-units="mm"
     showgrid="false"
     inkscape:zoom="9.3621792"
     inkscape:cx="207.60087"
     inkscape:cy="30.809695"
     inkscape:window-width="3840"
     inkscape:window-height="2035"
     inkscape:window-x="-13"
     inkscape:window-y="-13"
     inkscape:window-maximized="1"
     inkscape:current-layer="text828"
     showguides="true" /><defs
     id="defs144"><linearGradient
       id="linearGradient3062"
       inkscape:swatch="solid"><stop
         style="stop-color:#cfc584;stop-opacity:1;"
         offset="0"
         id="stop3060" /></linearGradient></defs><g
     inkscape:label="Layer 1"
     inkscape:groupmode="layer"
     id="layer1"
     transform="translate(-29.438864,-16.353207)"><rect
       style="fill:#ffffff;stroke:#ffffff;stroke-width:1.42819059"
       id="rect1"
       width="1.7746376"
       height="25.790871"
       x="30.166677"
       y="17.070375" /><g
       id="g3216"
       transform="matrix(0.74885552,0,0,0.74885552,31.65219,17.458192)"><rect
         style="fill:#2c2c2c;fill-opacity:1;stroke-width:1.68903005;stroke-linejoin:bevel;stroke-miterlimit:6"
         id="rect541"
         width="18.008223"
         height="13.109823"
         x="0.99999994"
         y="1.8901759"
         ry="1.1098239"
         rx="1.1098239" /><rect
         style="fill:#2b2b2b;fill-opacity:1;stroke-width:1.60000002;stroke-linejoin:bevel;stroke-miterlimit:6"
         id="rect590"
         width="1.9999999"
         height="4.9999995"
         x="9"
         y="13.999999"
         ry="0.99999994"
         rx="0.99999994" /><rect
         style="fill:#2b2b2b;fill-opacity:1;stroke-width:2.19089007;stroke-linejoin:bevel;stroke-miterlimit:6"
         id="rect592"
         width="11.999999"
         height="2.4999998"
         x="3.9999998"
         y="16.75"
         ry="0.49999931"
         rx="0.49999931" /><rect
         style="fill:#181818;fill-opacity:1;stroke-width:1.60000002;stroke-linejoin:bevel;stroke-miterlimit:6"
         id="rect594"
         width="15.999999"
         height="11"
         x="1.9999999"
         y="2.9999998"
         ry="0.75000006"
         rx="0.75000006" /><path
         style="fill:none;fill-opacity:1;stroke:#fafd00;stroke-width:0.569148;stroke-linecap:round;stroke-linejoin:round;stroke-miterlimit:6;stroke-dasharray:none;stroke-opacity:1"
         d="m 4.2784185,8.7360806 c 0,0 1.0387466,-2.0362566 2.2271283,-2.0362566 1.6703462,0 2.2271283,3.490725 3.8974742,3.490725 1.711093,0 2.783911,-3.1998312 4.454256,-3.1998312"
         id="path2248"
         sodipodi:nodetypes="cssc"
         inkscape:connector-curvature="0" /><path
         style="fill:none;fill-opacity:1;stroke:#00d0fd;stroke-width:0.569148;stroke-linecap:round;stroke-linejoin:round;stroke-miterlimit:6;stroke-dasharray:none;stroke-opacity:1"
         d="m 14.857277,8.1541936 c 0,0 -1.038747,2.0362564 -2.227128,2.0362564 -1.670346,0 -2.227128,-3.4907252 -3.8974743,-3.4907252 -1.7110933,0 -2.783911,3.1998316 -4.4542562,3.1998316"
         id="path2248-3"
         sodipodi:nodetypes="cssc"
         inkscape:connector-curvature="0" /><path
         id="rect1202"
         style="fill:#00587d;stroke-width:1.87732005;stroke-linejoin:bevel;stroke-miterlimit:6"
         d="M 4.5283964,3.5000448 C 4.2006617,3.5007596 3.9362582,3.7757208 3.9362582,4.1181751 v 8.6538259 c 0,0.342453 0.2644035,0.618844 0.5921382,0.618129 l 10.0877086,-0.022 c 0.327734,-7.14e-4 0.591563,-0.275676 0.591563,-0.618129 V 4.0961736 c 0,-0.3424543 -0.263829,-0.6188451 -0.591563,-0.6181303 z m 0.2434155,1.1635041 9.6003021,-0.022002 c 0.154227,-3.535e-4 0.278518,0.1298715 0.278518,0.2910264 v 7.5630777 c 0,0.161155 -0.124291,0.290673 -0.278518,0.291026 l -9.6003021,0.022 C 4.6175839,12.809032 4.493294,12.678808 4.493294,12.517653 V 4.9545753 c 0,-0.1611549 0.1242899,-0.2906729 0.2785179,-0.2910264 z"
         sodipodi:nodetypes="ssssssssssssssssss"
         inkscape:connector-curvature="0" /></g><rect
       style="fill:#ffffff;stroke:#ffffff;stroke-width:1.42819059"
       id="rect1-7"
       width="1.7746376"
       height="25.790873"
       x="145.41023"
       y="17.071884" /><g
       aria-label="EScope with STM32
Extension"
       transform="scale(0.99460744,1.0054218)"
       style="font-style:normal;font-variant:normal;font-weight:normal;font-stretch:normal;font-size:4.91225529px;line-height:1.25;font-family:Ubuntu;-inkscape-font-specification:Ubuntu;font-variant-ligatures:normal;font-variant-caps:normal;font-variant-numeric:normal;font-feature-settings:normal;text-align:start;letter-spacing:0px;word-spacing:0px;writing-mode:lr-tb;text-anchor:start;fill:#000000;fill-opacity:1;stroke:none;stroke-width:0.26315653"
       id="text828"><g
         id="g907"
         transform="translate(0,-10.526262)"><path
           inkscape:connector-curvature="0"
           id="path832"
           style="font-style:normal;font-variant:normal;font-weight:300;font-stretch:normal;font-size:11.22801304px;font-family:Ubuntu;-inkscape-font-specification:'Ubuntu Light';font-variant-ligatures:normal;font-variant-caps:normal;font-variant-numeric:normal;font-feature-settings:normal;text-align:start;writing-mode:lr-tb;text-anchor:start;stroke-width:1.20000005;stroke-miterlimit:4;stroke-dasharray:none"
           d="m 50.952889,37.563511 v -7.781013 h 4.491205 v 0.662453 h -3.7277 v 2.705951 h 3.323491 v 0.651225 h -3.323491 v 3.098931 h 4.019628 v 0.662453 z" /><path
           inkscape:connector-curvature="0"
           id="path834"
           style="font-style:normal;font-variant:normal;font-weight:300;font-stretch:normal;font-size:11.22801304px;font-family:Ubuntu;-inkscape-font-specification:'Ubuntu Light';font-variant-ligatures:normal;font-variant-caps:normal;font-variant-numeric:normal;font-feature-settings:normal;text-align:start;writing-mode:lr-tb;text-anchor:start;stroke-width:1.20000005;stroke-miterlimit:4;stroke-dasharray:none"
           d="m 58.853901,37.069478 q 0.909469,0 1.41473,-0.325612 0.50526,-0.33684 0.50526,-1.077889 0,-0.426665 -0.16842,-0.707365 -0.157192,-0.291928 -0.426664,-0.482805 -0.269473,-0.202104 -0.617541,-0.33684 -0.348069,-0.145964 -0.729821,-0.303156 -0.482805,-0.190877 -0.864557,-0.392981 -0.381752,-0.202104 -0.651225,-0.44912 -0.269472,-0.258245 -0.415436,-0.583857 -0.134736,-0.325612 -0.134736,-0.763505 0,-0.999293 0.662452,-1.515782 0.662453,-0.516488 1.841394,-0.516488 0.314385,0 0.617541,0.04491 0.303157,0.04491 0.561401,0.123508 0.269472,0.06737 0.482804,0.157192 0.224561,0.08982 0.370525,0.190876 l -0.269472,0.639997 q -0.325613,-0.22456 -0.797189,-0.359296 -0.460349,-0.134737 -0.999294,-0.134737 -0.370524,0 -0.684908,0.0786 -0.303157,0.06737 -0.527717,0.235788 -0.22456,0.157192 -0.359296,0.404208 -0.123509,0.247017 -0.123509,0.595085 0,0.359296 0.134737,0.606313 0.134736,0.247016 0.370524,0.426664 0.247016,0.179648 0.572629,0.325613 0.325612,0.145964 0.707365,0.303156 0.460348,0.190876 0.864557,0.381752 0.415436,0.190877 0.718592,0.449121 0.303157,0.258244 0.482805,0.628769 0.179648,0.370524 0.179648,0.909469 0,1.055433 -0.741049,1.583149 -0.729821,0.527717 -1.987358,0.527717 -0.449121,0 -0.819645,-0.05614 -0.370524,-0.05614 -0.662453,-0.134736 -0.291928,-0.08982 -0.494032,-0.179648 -0.202105,-0.08982 -0.314385,-0.157193 l 0.247017,-0.662452 q 0.11228,0.06737 0.303156,0.157192 0.190876,0.08982 0.44912,0.179648 0.258245,0.0786 0.583857,0.134736 0.325613,0.05614 0.718593,0.05614 z" /><path
           inkscape:connector-curvature="0"
           id="path836"
           style="font-style:normal;font-variant:normal;font-weight:300;font-stretch:normal;font-size:11.22801304px;font-family:Ubuntu;-inkscape-font-specification:'Ubuntu Light';font-variant-ligatures:normal;font-variant-caps:normal;font-variant-numeric:normal;font-feature-settings:normal;text-align:start;writing-mode:lr-tb;text-anchor:start;stroke-width:1.20000005;stroke-miterlimit:4;stroke-dasharray:none"
           d="m 65.350183,37.687019 q -0.673681,0 -1.190169,-0.213332 -0.516489,-0.213332 -0.864557,-0.606313 -0.336841,-0.404208 -0.516489,-0.954381 -0.179648,-0.561401 -0.179648,-1.235081 0,-0.684909 0.179648,-1.24631 0.190876,-0.561401 0.538945,-0.965609 0.348068,-0.404208 0.842101,-0.617541 0.494032,-0.22456 1.111573,-0.22456 0.471576,0 0.875785,0.0786 0.415436,0.0786 0.639997,0.202104 l -0.190877,0.628769 q -0.22456,-0.11228 -0.50526,-0.179648 -0.2807,-0.06737 -0.752277,-0.06737 -0.965609,0 -1.47087,0.628768 -0.494032,0.617541 -0.494032,1.762799 0,0.516488 0.11228,0.954381 0.11228,0.426664 0.359296,0.741049 0.258245,0.303156 0.651225,0.482804 0.404208,0.16842 0.976837,0.16842 0.471577,0 0.785961,-0.101052 0.325612,-0.11228 0.471577,-0.190876 l 0.157192,0.628769 q -0.202104,0.11228 -0.639997,0.213332 -0.426664,0.11228 -0.898241,0.11228 z" /><path
           inkscape:connector-curvature="0"
           id="path838"
           style="font-style:normal;font-variant:normal;font-weight:300;font-stretch:normal;font-size:11.22801304px;font-family:Ubuntu;-inkscape-font-specification:'Ubuntu Light';font-variant-ligatures:normal;font-variant-caps:normal;font-variant-numeric:normal;font-feature-settings:normal;text-align:start;writing-mode:lr-tb;text-anchor:start;stroke-width:1.20000005;stroke-miterlimit:4;stroke-dasharray:none"
           d="m 73.074355,34.666684 q 0,0.684908 -0.202104,1.246309 -0.190876,0.561401 -0.550173,0.954381 -0.348068,0.392981 -0.830873,0.617541 -0.482804,0.213332 -1.066661,0.213332 -0.583857,0 -1.066661,-0.213332 -0.482805,-0.22456 -0.842101,-0.617541 -0.348069,-0.39298 -0.550173,-0.954381 -0.190876,-0.561401 -0.190876,-1.246309 0,-0.684909 0.190876,-1.24631 0.202104,-0.561401 0.550173,-0.954381 0.359296,-0.404208 0.842101,-0.617541 0.482804,-0.22456 1.066661,-0.22456 0.583857,0 1.066661,0.22456 0.482805,0.213333 0.830873,0.617541 0.359297,0.39298 0.550173,0.954381 0.202104,0.561401 0.202104,1.24631 z m -0.774733,0 q 0,-1.089118 -0.50526,-1.729114 -0.505261,-0.651225 -1.369818,-0.651225 -0.864557,0 -1.369818,0.651225 -0.50526,0.639996 -0.50526,1.729114 0,1.089117 0.50526,1.729114 0.505261,0.639996 1.369818,0.639996 0.864557,0 1.369818,-0.639996 0.50526,-0.639997 0.50526,-1.729114 z" /><path
           inkscape:connector-curvature="0"
           id="path840"
           style="font-style:normal;font-variant:normal;font-weight:300;font-stretch:normal;font-size:11.22801304px;font-family:Ubuntu;-inkscape-font-specification:'Ubuntu Light';font-variant-ligatures:normal;font-variant-caps:normal;font-variant-numeric:normal;font-feature-settings:normal;text-align:start;writing-mode:lr-tb;text-anchor:start;stroke-width:1.20000005;stroke-miterlimit:4;stroke-dasharray:none"
           d="m 75.387675,36.519306 q 0.101053,0.0786 0.247017,0.16842 0.157192,0.08982 0.359296,0.16842 0.202104,0.0786 0.437893,0.134736 0.235788,0.04491 0.494032,0.04491 0.538945,0 0.898241,-0.179648 0.370525,-0.190876 0.595085,-0.505261 0.22456,-0.325612 0.325612,-0.752276 0.101052,-0.437893 0.101052,-0.920697 0,-1.145258 -0.572628,-1.75157 -0.572629,-0.617541 -1.515782,-0.617541 -0.538945,0 -0.875785,0.05614 -0.325612,0.04491 -0.494033,0.101052 z m 0,3.121387 h -0.72982 v -7.679961 q 0.325612,-0.11228 0.830873,-0.213332 0.50526,-0.101052 1.279993,-0.101052 0.639997,0 1.156485,0.213332 0.527717,0.202105 0.898241,0.595085 0.381753,0.39298 0.583857,0.954381 0.213332,0.561401 0.213332,1.268766 0,0.662452 -0.179648,1.223853 -0.16842,0.550173 -0.50526,0.954381 -0.336841,0.392981 -0.830873,0.617541 -0.482805,0.22456 -1.111574,0.22456 -0.572628,0 -0.999293,-0.157192 -0.415436,-0.16842 -0.606313,-0.314384 z" /><path
           inkscape:connector-curvature="0"
           id="path842"
           style="font-style:normal;font-variant:normal;font-weight:300;font-stretch:normal;font-size:11.22801304px;font-family:Ubuntu;-inkscape-font-specification:'Ubuntu Light';font-variant-ligatures:normal;font-variant-caps:normal;font-variant-numeric:normal;font-feature-settings:normal;text-align:start;writing-mode:lr-tb;text-anchor:start;stroke-width:1.20000005;stroke-miterlimit:4;stroke-dasharray:none"
           d="m 80.86677,34.655456 q 0,-0.763505 0.213332,-1.324906 0.224561,-0.572629 0.572629,-0.954381 0.359296,-0.381753 0.808417,-0.561401 0.460349,-0.190876 0.943153,-0.190876 1.066661,0 1.69543,0.696137 0.639997,0.696137 0.639997,2.14455 0,0.08982 -0.01123,0.179649 0,0.08982 -0.01123,0.16842 h -4.075769 q 0.03368,1.066661 0.527717,1.63929 0.494032,0.572628 1.571921,0.572628 0.595085,0 0.943154,-0.11228 0.348068,-0.11228 0.50526,-0.190876 l 0.134736,0.628769 q -0.157192,0.08982 -0.595084,0.213332 -0.426665,0.123508 -1.010522,0.123508 -0.763504,0 -1.302449,-0.22456 -0.538945,-0.22456 -0.887013,-0.628769 -0.348068,-0.404208 -0.505261,-0.954381 -0.157192,-0.561401 -0.157192,-1.223853 z m 4.120681,-0.460349 q -0.02246,-0.909469 -0.426665,-1.41473 -0.404208,-0.50526 -1.145257,-0.50526 -0.39298,0 -0.707365,0.157192 -0.303156,0.157192 -0.538944,0.426664 -0.224561,0.258245 -0.359297,0.606313 -0.123508,0.348069 -0.145964,0.729821 z" /><path
           inkscape:connector-curvature="0"
           id="path844"
           style="font-style:normal;font-variant:normal;font-weight:300;font-stretch:normal;font-size:11.22801304px;font-family:Ubuntu;-inkscape-font-specification:'Ubuntu Light';font-variant-ligatures:normal;font-variant-caps:normal;font-variant-numeric:normal;font-feature-settings:normal;text-align:start;writing-mode:lr-tb;text-anchor:start;stroke-width:1.20000005;stroke-miterlimit:4;stroke-dasharray:none"
           d="m 93.681794,31.758628 q 0.101052,0.561401 0.258245,1.201398 0.16842,0.628768 0.359296,1.291221 0.202104,0.651225 0.415436,1.291222 0.224561,0.639996 0.449121,1.201397 0.190876,-0.426665 0.404208,-1.032977 0.213333,-0.617541 0.426665,-1.291222 0.213332,-0.684909 0.39298,-1.369817 0.190877,-0.696137 0.314385,-1.291222 h 0.718593 q -0.404209,1.706658 -0.887013,3.121388 -0.471577,1.414729 -1.044206,2.683495 H 94.804596 Q 94.636175,37.17053 94.445299,36.687726 94.265651,36.193693 94.063547,35.643521 93.87267,35.08212 93.681794,34.475807 q -0.179648,-0.61754 -0.348068,-1.257537 -0.16842,0.639997 -0.359297,1.257537 -0.179648,0.606313 -0.381752,1.167714 -0.190876,0.550172 -0.381752,1.044205 -0.179649,0.482804 -0.348069,0.875785 h -0.696137 q -0.572628,-1.268766 -1.055433,-2.683495 -0.471576,-1.41473 -0.875785,-3.121388 h 0.774733 q 0.123508,0.595085 0.303156,1.291222 0.190877,0.684908 0.404209,1.369817 0.213332,0.673681 0.426664,1.279994 0.224561,0.606312 0.415437,1.032977 0.213332,-0.561401 0.426664,-1.201397 0.224561,-0.639997 0.415437,-1.291222 0.190876,-0.651225 0.359296,-1.279993 0.16842,-0.639997 0.291929,-1.201398 z" /><path
           inkscape:connector-curvature="0"
           id="path846"
           style="font-style:normal;font-variant:normal;font-weight:300;font-stretch:normal;font-size:11.22801304px;font-family:Ubuntu;-inkscape-font-specification:'Ubuntu Light';font-variant-ligatures:normal;font-variant-caps:normal;font-variant-numeric:normal;font-feature-settings:normal;text-align:start;writing-mode:lr-tb;text-anchor:start;stroke-width:1.20000005;stroke-miterlimit:4;stroke-dasharray:none"
           d="m 99.378783,37.563511 h -0.72982 v -5.804883 h 0.72982 z m 0.168421,-7.556453 q 0,0.258244 -0.157193,0.415437 -0.157192,0.145964 -0.381752,0.145964 -0.22456,0 -0.381752,-0.145964 -0.157193,-0.157193 -0.157193,-0.415437 0,-0.258244 0.157193,-0.404208 0.157192,-0.157193 0.381752,-0.157193 0.22456,0 0.381752,0.157193 0.157193,0.145964 0.157193,0.404208 z" /><path
           inkscape:connector-curvature="0"
           id="path848"
           style="font-style:normal;font-variant:normal;font-weight:300;font-stretch:normal;font-size:11.22801304px;font-family:Ubuntu;-inkscape-font-specification:'Ubuntu Light';font-variant-ligatures:normal;font-variant-caps:normal;font-variant-numeric:normal;font-feature-settings:normal;text-align:start;writing-mode:lr-tb;text-anchor:start;stroke-width:1.20000005;stroke-miterlimit:4;stroke-dasharray:none"
           d="m 101.98736,31.758628 h 2.31297 v 0.617541 h -2.31297 v 3.087703 q 0,0.494033 0.0786,0.808417 0.0898,0.303157 0.24702,0.471577 0.15719,0.16842 0.38175,0.22456 0.22456,0.05614 0.49403,0.05614 0.46035,0 0.74105,-0.101052 0.2807,-0.11228 0.43789,-0.202104 l 0.17965,0.606313 q -0.15719,0.101052 -0.55017,0.235788 -0.39298,0.123508 -0.85333,0.123508 -0.53895,0 -0.90947,-0.134736 -0.3593,-0.145964 -0.58386,-0.426665 -0.21333,-0.291928 -0.30315,-0.718592 -0.0898,-0.426665 -0.0898,-1.010522 V 30.05197 l 0.72982,-0.134736 z" /><path
           inkscape:connector-curvature="0"
           id="path850"
           style="font-style:normal;font-variant:normal;font-weight:300;font-stretch:normal;font-size:11.22801304px;font-family:Ubuntu;-inkscape-font-specification:'Ubuntu Light';font-variant-ligatures:normal;font-variant-caps:normal;font-variant-numeric:normal;font-feature-settings:normal;text-align:start;writing-mode:lr-tb;text-anchor:start;stroke-width:1.20000005;stroke-miterlimit:4;stroke-dasharray:none"
           d="m 105.64454,37.563511 v -8.578202 l 0.72982,-0.134736 v 3.076475 q 0.3593,-0.134736 0.72982,-0.202104 0.37053,-0.0786 0.74105,-0.0786 0.67368,0 1.1228,0.190876 0.44912,0.190876 0.7186,0.550173 0.26947,0.348068 0.37052,0.842101 0.11228,0.494032 0.11228,1.089117 v 3.244896 h -0.72982 v -3.009108 q 0,-0.61754 -0.0898,-1.044205 -0.0786,-0.426664 -0.2807,-0.696137 -0.19088,-0.269472 -0.51649,-0.381752 -0.32562,-0.123508 -0.81965,-0.123508 -0.19087,0 -0.41543,0.03368 -0.21334,0.03368 -0.40421,0.0786 -0.19088,0.03368 -0.34807,0.0786 -0.14597,0.04491 -0.19088,0.06737 v 4.996466 z" /><path
           inkscape:connector-curvature="0"
           id="path852"
           style="font-style:normal;font-variant:normal;font-weight:300;font-stretch:normal;font-size:11.22801304px;font-family:Ubuntu;-inkscape-font-specification:'Ubuntu Light';font-variant-ligatures:normal;font-variant-caps:normal;font-variant-numeric:normal;font-feature-settings:normal;text-align:start;writing-mode:lr-tb;text-anchor:start;stroke-width:1.20000005;stroke-miterlimit:4;stroke-dasharray:none"
           d="m 116.30975,37.069478 q 0.90947,0 1.41473,-0.325612 0.50526,-0.33684 0.50526,-1.077889 0,-0.426665 -0.16842,-0.707365 -0.1572,-0.291928 -0.42667,-0.482805 -0.26947,-0.202104 -0.61754,-0.33684 -0.34807,-0.145964 -0.72982,-0.303156 -0.4828,-0.190877 -0.86456,-0.392981 -0.38175,-0.202104 -0.65122,-0.44912 -0.26947,-0.258245 -0.41544,-0.583857 -0.13473,-0.325612 -0.13473,-0.763505 0,-0.999293 0.66245,-1.515782 0.66245,-0.516488 1.84139,-0.516488 0.31439,0 0.61754,0.04491 0.30316,0.04491 0.5614,0.123508 0.26948,0.06737 0.48281,0.157192 0.22456,0.08982 0.37052,0.190876 l -0.26947,0.639997 q -0.32561,-0.22456 -0.79719,-0.359296 -0.46035,-0.134737 -0.99929,-0.134737 -0.37053,0 -0.68491,0.0786 -0.30316,0.06737 -0.52772,0.235788 -0.22456,0.157192 -0.35929,0.404208 -0.12351,0.247017 -0.12351,0.595085 0,0.359296 0.13473,0.606313 0.13474,0.247016 0.37053,0.426664 0.24702,0.179648 0.57263,0.325613 0.32561,0.145964 0.70736,0.303156 0.46035,0.190876 0.86456,0.381752 0.41544,0.190877 0.71859,0.449121 0.30316,0.258244 0.48281,0.628769 0.17965,0.370524 0.17965,0.909469 0,1.055433 -0.74105,1.583149 -0.72982,0.527717 -1.98736,0.527717 -0.44912,0 -0.81965,-0.05614 -0.37052,-0.05614 -0.66245,-0.134736 -0.29193,-0.08982 -0.49403,-0.179648 -0.20211,-0.08982 -0.31439,-0.157193 l 0.24702,-0.662452 q 0.11228,0.06737 0.30316,0.157192 0.19087,0.08982 0.44912,0.179648 0.25824,0.0786 0.58385,0.134736 0.32562,0.05614 0.7186,0.05614 z" /><path
           inkscape:connector-curvature="0"
           id="path854"
           style="font-style:normal;font-variant:normal;font-weight:300;font-stretch:normal;font-size:11.22801304px;font-family:Ubuntu;-inkscape-font-specification:'Ubuntu Light';font-variant-ligatures:normal;font-variant-caps:normal;font-variant-numeric:normal;font-feature-settings:normal;text-align:start;writing-mode:lr-tb;text-anchor:start;stroke-width:1.20000005;stroke-miterlimit:4;stroke-dasharray:none"
           d="m 125.38848,29.782498 v 0.662453 h -2.49262 v 7.11856 h -0.76351 v -7.11856 h -2.49262 v -0.662453 z" /><path
           inkscape:connector-curvature="0"
           id="path856"
           style="font-style:normal;font-variant:normal;font-weight:300;font-stretch:normal;font-size:11.22801304px;font-family:Ubuntu;-inkscape-font-specification:'Ubuntu Light';font-variant-ligatures:normal;font-variant-caps:normal;font-variant-numeric:normal;font-feature-settings:normal;text-align:start;writing-mode:lr-tb;text-anchor:start;stroke-width:1.20000005;stroke-miterlimit:4;stroke-dasharray:none"
           d="m 130.10231,36.44071 q -0.11228,-0.280701 -0.32561,-0.741049 -0.20211,-0.460349 -0.46035,-0.999293 -0.25825,-0.550173 -0.52772,-1.122802 -0.26947,-0.583856 -0.51649,-1.089117 -0.24701,-0.505261 -0.43789,-0.887013 -0.19088,-0.381752 -0.2807,-0.538945 -0.14596,1.403502 -0.23579,3.05402 -0.0786,1.63929 -0.14596,3.447 h -0.75228 q 0.10105,-2.122095 0.22456,-4.064541 0.13474,-1.942446 0.32561,-3.716472 h 0.67368 q 0.33685,0.561401 0.7186,1.302449 0.38175,0.729821 0.75227,1.52701 0.38176,0.785961 0.72983,1.560694 0.35929,0.763505 0.62876,1.381046 0.26948,-0.617541 0.61754,-1.381046 0.3593,-0.774733 0.72983,-1.560694 0.38175,-0.797189 0.7635,-1.52701 0.38175,-0.741048 0.71859,-1.302449 h 0.64 q 0.19088,1.774026 0.31438,3.716472 0.13474,1.942446 0.23579,4.064541 h -0.77473 q -0.0674,-1.80771 -0.15719,-3.447 -0.0786,-1.650518 -0.22456,-3.05402 -0.0898,0.157193 -0.2807,0.538945 -0.19088,0.381752 -0.4379,0.887013 -0.24701,0.505261 -0.51648,1.089117 -0.26948,0.572629 -0.52772,1.122802 -0.25824,0.538944 -0.47158,0.999293 -0.2021,0.460348 -0.31438,0.741049 z" /><path
           inkscape:connector-curvature="0"
           id="path858"
           style="font-style:normal;font-variant:normal;font-weight:300;font-stretch:normal;font-size:11.22801304px;font-family:Ubuntu;-inkscape-font-specification:'Ubuntu Light';font-variant-ligatures:normal;font-variant-caps:normal;font-variant-numeric:normal;font-feature-settings:normal;text-align:start;writing-mode:lr-tb;text-anchor:start;stroke-width:1.20000005;stroke-miterlimit:4;stroke-dasharray:none"
           d="m 137.95333,37.05825 q 1.06666,0 1.52701,-0.437892 0.46034,-0.449121 0.46034,-1.201398 0,-0.494032 -0.19087,-0.819645 -0.17965,-0.325612 -0.50526,-0.516488 -0.31439,-0.202104 -0.74105,-0.2807 -0.41544,-0.08982 -0.88701,-0.08982 h -0.11228 V 33.10599 h 0.25824 q 0.30316,0 0.61754,-0.05614 0.32561,-0.06737 0.58386,-0.235789 0.26947,-0.16842 0.43789,-0.44912 0.17965,-0.2807 0.17965,-0.718593 0,-0.370524 -0.12351,-0.628769 -0.12351,-0.269472 -0.33684,-0.426664 -0.2021,-0.157192 -0.48281,-0.22456 -0.26947,-0.0786 -0.57262,-0.0786 -0.60632,0 -0.94316,0.168421 -0.33684,0.16842 -0.55017,0.314384 l -0.31438,-0.572629 q 0.11228,-0.0786 0.2807,-0.179648 0.17964,-0.101052 0.41543,-0.190876 0.23579,-0.08982 0.51649,-0.145964 0.29193,-0.06737 0.62877,-0.06737 0.58386,0 0.99929,0.145964 0.42667,0.145964 0.70737,0.415436 0.2807,0.258245 0.41543,0.628769 0.13474,0.359296 0.13474,0.785961 0,0.684909 -0.37052,1.122801 -0.3593,0.426665 -0.93193,0.617541 0.31439,0.0786 0.60631,0.247016 0.30316,0.157192 0.53895,0.415437 0.23579,0.247016 0.38175,0.606312 0.14597,0.359297 0.14597,0.842101 0,0.494033 -0.17965,0.909469 -0.16842,0.415437 -0.51649,0.729821 -0.33684,0.303157 -0.86456,0.482805 -0.52772,0.16842 -1.23508,0.16842 -0.37052,0 -0.68491,-0.05614 -0.30316,-0.04491 -0.53894,-0.11228 -0.23579,-0.06737 -0.40421,-0.134736 -0.15719,-0.06737 -0.23579,-0.11228 l 0.19088,-0.651225 q 0.0674,0.04491 0.22456,0.11228 0.15719,0.06737 0.37052,0.134736 0.22456,0.05614 0.49403,0.101052 0.2807,0.04491 0.60632,0.04491 z" /><path
           inkscape:connector-curvature="0"
           id="path860"
           style="font-style:normal;font-variant:normal;font-weight:300;font-stretch:normal;font-size:11.22801304px;font-family:Ubuntu;-inkscape-font-specification:'Ubuntu Light';font-variant-ligatures:normal;font-variant-caps:normal;font-variant-numeric:normal;font-feature-settings:normal;text-align:start;writing-mode:lr-tb;text-anchor:start;stroke-width:1.20000005;stroke-miterlimit:4;stroke-dasharray:none"
           d="m 146.7724,31.713716 q 0,0.437893 -0.15719,0.830873 -0.15719,0.381753 -0.42667,0.741049 -0.25824,0.359296 -0.59508,0.696137 -0.33684,0.33684 -0.68491,0.673681 -0.29193,0.2807 -0.57263,0.572628 -0.26947,0.280701 -0.49403,0.572629 -0.21333,0.2807 -0.34807,0.5614 -0.12351,0.269473 -0.12351,0.538945 v 0.02246 h 3.67156 v 0.639997 h -4.47997 q 0,-0.02246 -0.0112,-0.0786 0,-0.06737 0,-0.190876 0,-0.527717 0.19087,-0.976838 0.19088,-0.460348 0.48281,-0.864557 0.30316,-0.404208 0.66245,-0.752276 0.37053,-0.348069 0.70737,-0.673681 0.2807,-0.269473 0.52771,-0.516489 0.25825,-0.258244 0.44912,-0.527716 0.19088,-0.269473 0.30316,-0.572629 0.11228,-0.303156 0.11228,-0.662453 0,-0.785961 -0.42666,-1.122801 -0.41544,-0.348069 -1.05544,-0.348069 -0.35929,0 -0.63999,0.08982 -0.2807,0.08982 -0.49404,0.213332 -0.2021,0.11228 -0.34806,0.235788 -0.14597,0.123508 -0.21334,0.190876 l -0.38175,-0.50526 q 0.0674,-0.0786 0.23579,-0.224561 0.17965,-0.157192 0.43789,-0.303156 0.26947,-0.145964 0.61754,-0.247016 0.34807,-0.11228 0.77473,-0.11228 1.13403,0 1.70666,0.5614 0.57263,0.550173 0.57263,1.538238 z" /><path
           inkscape:connector-curvature="0"
           id="path862"
           style="font-style:normal;font-variant:normal;font-weight:300;font-stretch:normal;font-size:11.22801304px;font-family:Ubuntu;-inkscape-font-specification:'Ubuntu Light';font-variant-ligatures:normal;font-variant-caps:normal;font-variant-numeric:normal;font-feature-settings:normal;text-align:start;writing-mode:lr-tb;text-anchor:start;stroke-width:1.20000005;stroke-miterlimit:4;stroke-dasharray:none"
           d="m 50.952889,51.598527 v -7.781013 h 4.491205 v 0.662453 h -3.7277 v 2.705951 h 3.323491 v 0.651225 h -3.323491 v 3.098931 h 4.019628 v 0.662453 z" /><path
           inkscape:connector-curvature="0"
           id="path864"
           style="font-style:normal;font-variant:normal;font-weight:300;font-stretch:normal;font-size:11.22801304px;font-family:Ubuntu;-inkscape-font-specification:'Ubuntu Light';font-variant-ligatures:normal;font-variant-caps:normal;font-variant-numeric:normal;font-feature-settings:normal;text-align:start;writing-mode:lr-tb;text-anchor:start;stroke-width:1.20000005;stroke-miterlimit:4;stroke-dasharray:none"
           d="m 59.064602,48.971172 q -0.247016,0.325613 -0.494033,0.684909 -0.247016,0.359296 -0.482804,0.707365 -0.224561,0.348068 -0.415437,0.673681 -0.190876,0.314384 -0.325612,0.5614 h -0.752277 q 0.460348,-0.864557 0.965609,-1.605606 0.505261,-0.752277 1.032977,-1.470869 l -1.886306,-2.728408 h 0.853329 l 1.504554,2.223147 1.52701,-2.223147 h 0.797189 l -1.852623,2.683496 q 0.235789,0.314384 0.505261,0.684908 0.269472,0.370525 0.538945,0.774733 0.269472,0.392981 0.516488,0.819645 0.258244,0.426665 0.471577,0.842101 h -0.785961 q -0.134736,-0.247016 -0.325613,-0.5614 -0.190876,-0.325613 -0.426664,-0.673681 -0.22456,-0.348069 -0.482805,-0.707365 -0.247016,-0.359296 -0.482804,-0.684909 z" /><path
           inkscape:connector-curvature="0"
           id="path866"
           style="font-style:normal;font-variant:normal;font-weight:300;font-stretch:normal;font-size:11.22801304px;font-family:Ubuntu;-inkscape-font-specification:'Ubuntu Light';font-variant-ligatures:normal;font-variant-caps:normal;font-variant-numeric:normal;font-feature-settings:normal;text-align:start;writing-mode:lr-tb;text-anchor:start;stroke-width:1.20000005;stroke-miterlimit:4;stroke-dasharray:none"
           d="m 63.522649,45.793644 h 2.312971 v 0.617541 h -2.312971 v 3.087704 q 0,0.494032 0.0786,0.808417 0.08982,0.303156 0.247017,0.471576 0.157192,0.16842 0.381752,0.224561 0.22456,0.05614 0.494033,0.05614 0.460348,0 0.741049,-0.101053 0.2807,-0.11228 0.437892,-0.202104 l 0.179648,0.606313 q -0.157192,0.101052 -0.550172,0.235788 -0.392981,0.123508 -0.853329,0.123508 -0.538945,0 -0.909469,-0.134736 -0.359297,-0.145964 -0.583857,-0.426664 -0.213332,-0.291929 -0.303156,-0.718593 -0.08982,-0.426665 -0.08982,-1.010521 v -5.344535 l 0.729821,-0.134736 z" /><path
           inkscape:connector-curvature="0"
           id="path868"
           style="font-style:normal;font-variant:normal;font-weight:300;font-stretch:normal;font-size:11.22801304px;font-family:Ubuntu;-inkscape-font-specification:'Ubuntu Light';font-variant-ligatures:normal;font-variant-caps:normal;font-variant-numeric:normal;font-feature-settings:normal;text-align:start;writing-mode:lr-tb;text-anchor:start;stroke-width:1.20000005;stroke-miterlimit:4;stroke-dasharray:none"
           d="m 66.831755,48.690472 q 0,-0.763505 0.213332,-1.324906 0.224561,-0.572628 0.572629,-0.954381 0.359296,-0.381752 0.808417,-0.5614 0.460348,-0.190877 0.943153,-0.190877 1.066661,0 1.69543,0.696137 0.639997,0.696137 0.639997,2.144551 0,0.08982 -0.01123,0.179648 0,0.08982 -0.01123,0.16842 h -4.075769 q 0.03368,1.066661 0.527717,1.63929 0.494032,0.572629 1.571921,0.572629 0.595085,0 0.943153,-0.112281 0.348069,-0.11228 0.505261,-0.190876 l 0.134736,0.628769 q -0.157192,0.08982 -0.595084,0.213332 -0.426665,0.123508 -1.010522,0.123508 -0.763505,0 -1.302449,-0.22456 -0.538945,-0.22456 -0.887013,-0.628769 -0.348069,-0.404208 -0.505261,-0.954381 -0.157192,-0.5614 -0.157192,-1.223853 z m 4.120681,-0.460349 q -0.02246,-0.909469 -0.426665,-1.414729 -0.404208,-0.505261 -1.145257,-0.505261 -0.39298,0 -0.707365,0.157192 -0.303156,0.157192 -0.538944,0.426665 -0.224561,0.258244 -0.359297,0.606312 -0.123508,0.348069 -0.145964,0.729821 z" /><path
           inkscape:connector-curvature="0"
           id="path870"
           style="font-style:normal;font-variant:normal;font-weight:300;font-stretch:normal;font-size:11.22801304px;font-family:Ubuntu;-inkscape-font-specification:'Ubuntu Light';font-variant-ligatures:normal;font-variant-caps:normal;font-variant-numeric:normal;font-feature-settings:normal;text-align:start;writing-mode:lr-tb;text-anchor:start;stroke-width:1.20000005;stroke-miterlimit:4;stroke-dasharray:none"
           d="m 73.342074,45.995749 q 0.325612,-0.08982 0.875785,-0.202105 0.550173,-0.11228 1.347362,-0.11228 0.662452,0 1.100345,0.190877 0.44912,0.190876 0.707365,0.550172 0.269472,0.348069 0.381752,0.842101 0.11228,0.494033 0.11228,1.089117 v 3.244896 H 77.137142 V 48.58942 q 0,-0.617541 -0.08982,-1.044206 -0.0786,-0.426664 -0.2807,-0.696136 -0.190876,-0.269473 -0.516489,-0.381753 -0.314384,-0.123508 -0.797189,-0.123508 -0.516488,0 -0.898241,0.05614 -0.370524,0.05614 -0.482804,0.101052 v 5.097518 h -0.729821 z" /><path
           inkscape:connector-curvature="0"
           id="path872"
           style="font-style:normal;font-variant:normal;font-weight:300;font-stretch:normal;font-size:11.22801304px;font-family:Ubuntu;-inkscape-font-specification:'Ubuntu Light';font-variant-ligatures:normal;font-variant-caps:normal;font-variant-numeric:normal;font-feature-settings:normal;text-align:start;writing-mode:lr-tb;text-anchor:start;stroke-width:1.20000005;stroke-miterlimit:4;stroke-dasharray:none"
           d="m 80.913789,51.082039 q 0.628769,0 1.032978,-0.202105 0.415436,-0.213332 0.415436,-0.707364 0,-0.235789 -0.0786,-0.404209 -0.06737,-0.16842 -0.235788,-0.303156 -0.168421,-0.134736 -0.449121,-0.258245 -0.269472,-0.123508 -0.673681,-0.291928 -0.325612,-0.134736 -0.61754,-0.269472 -0.291929,-0.145964 -0.516489,-0.325613 -0.22456,-0.190876 -0.359296,-0.44912 -0.134737,-0.258244 -0.134737,-0.628769 0,-0.707365 0.527717,-1.145257 0.538945,-0.437893 1.47087,-0.437893 0.595085,0 0.976837,0.101052 0.39298,0.101053 0.550173,0.179649 l -0.168421,0.651224 q -0.134736,-0.06737 -0.460348,-0.179648 -0.314385,-0.11228 -0.931925,-0.11228 -0.247017,0 -0.471577,0.05614 -0.213332,0.04491 -0.381752,0.157192 -0.16842,0.101052 -0.269473,0.269473 -0.101052,0.157192 -0.101052,0.39298 0,0.235788 0.08982,0.404209 0.08983,0.16842 0.258245,0.303156 0.179648,0.123508 0.426664,0.235788 0.258245,0.11228 0.583857,0.247016 0.33684,0.134737 0.639997,0.280701 0.314384,0.134736 0.550172,0.33684 0.235789,0.190876 0.381753,0.471577 0.145964,0.269472 0.145964,0.684908 0,0.785961 -0.595085,1.19017 -0.583856,0.404208 -1.605606,0.404208 -0.763505,0 -1.167713,-0.134736 -0.404208,-0.123508 -0.538945,-0.190876 L 79.398,50.745198 q 0.03368,0.02246 0.145964,0.0786 0.11228,0.04491 0.303156,0.11228 0.190876,0.05614 0.449121,0.101053 0.269472,0.04491 0.61754,0.04491 z" /><path
           inkscape:connector-curvature="0"
           id="path874"
           style="font-style:normal;font-variant:normal;font-weight:300;font-stretch:normal;font-size:11.22801304px;font-family:Ubuntu;-inkscape-font-specification:'Ubuntu Light';font-variant-ligatures:normal;font-variant-caps:normal;font-variant-numeric:normal;font-feature-settings:normal;text-align:start;writing-mode:lr-tb;text-anchor:start;stroke-width:1.20000005;stroke-miterlimit:4;stroke-dasharray:none"
           d="m 85.256046,51.598527 h -0.729821 v -5.804883 h 0.729821 z m 0.16842,-7.556453 q 0,0.258245 -0.157192,0.415437 -0.157193,0.145964 -0.381753,0.145964 -0.22456,0 -0.381752,-0.145964 -0.157193,-0.157192 -0.157193,-0.415437 0,-0.258244 0.157193,-0.404208 0.157192,-0.157192 0.381752,-0.157192 0.22456,0 0.381753,0.157192 0.157192,0.145964 0.157192,0.404208 z" /><path
           inkscape:connector-curvature="0"
           id="path876"
           style="font-style:normal;font-variant:normal;font-weight:300;font-stretch:normal;font-size:11.22801304px;font-family:Ubuntu;-inkscape-font-specification:'Ubuntu Light';font-variant-ligatures:normal;font-variant-caps:normal;font-variant-numeric:normal;font-feature-settings:normal;text-align:start;writing-mode:lr-tb;text-anchor:start;stroke-width:1.20000005;stroke-miterlimit:4;stroke-dasharray:none"
           d="m 92.131274,48.7017 q 0,0.684909 -0.202104,1.246309 -0.190876,0.561401 -0.550173,0.954381 -0.348068,0.392981 -0.830873,0.617541 -0.482804,0.213332 -1.066661,0.213332 -0.583857,0 -1.066661,-0.213332 -0.482805,-0.22456 -0.842101,-0.617541 -0.348068,-0.39298 -0.550173,-0.954381 -0.190876,-0.5614 -0.190876,-1.246309 0,-0.684909 0.190876,-1.24631 0.202105,-0.5614 0.550173,-0.954381 0.359296,-0.404208 0.842101,-0.61754 0.482804,-0.224561 1.066661,-0.224561 0.583857,0 1.066661,0.224561 0.482805,0.213332 0.830873,0.61754 0.359297,0.392981 0.550173,0.954381 0.202104,0.561401 0.202104,1.24631 z m -0.774733,0 q 0,-1.089117 -0.50526,-1.729114 -0.505261,-0.651225 -1.369818,-0.651225 -0.864557,0 -1.369817,0.651225 -0.505261,0.639997 -0.505261,1.729114 0,1.089117 0.505261,1.729114 0.50526,0.639997 1.369817,0.639997 0.864557,0 1.369818,-0.639997 0.50526,-0.639997 0.50526,-1.729114 z" /><path
           inkscape:connector-curvature="0"
           id="path878"
           style="font-style:normal;font-variant:normal;font-weight:300;font-stretch:normal;font-size:11.22801304px;font-family:Ubuntu;-inkscape-font-specification:'Ubuntu Light';font-variant-ligatures:normal;font-variant-caps:normal;font-variant-numeric:normal;font-feature-settings:normal;text-align:start;writing-mode:lr-tb;text-anchor:start;stroke-width:1.20000005;stroke-miterlimit:4;stroke-dasharray:none"
           d="m 93.714778,45.995749 q 0.325612,-0.08982 0.875785,-0.202105 0.550172,-0.11228 1.347361,-0.11228 0.662453,0 1.100345,0.190877 0.449121,0.190876 0.707365,0.550172 0.269473,0.348069 0.381753,0.842101 0.11228,0.494033 0.11228,1.089117 v 3.244896 H 97.509846 V 48.58942 q 0,-0.617541 -0.08982,-1.044206 -0.0786,-0.426664 -0.280701,-0.696136 -0.190876,-0.269473 -0.516488,-0.381753 -0.314384,-0.123508 -0.797189,-0.123508 -0.516489,0 -0.898241,0.05614 -0.370525,0.05614 -0.482805,0.101052 v 5.097518 h -0.72982 z" /></g></g></g></svg>